<svg width="1440" height="1024" viewBox="0 0 1440 1024" fill="none" xmlns="http://www.w3.org/2000/svg">
<g clip-path="url(#clip0_35_23)">
<rect width="1440" height="1024" fill="white"/>
<circle cx="1086.5" cy="458.5" r="53.5" fill="#F1D299" fill-opacity="0.3"/>
<ellipse cx="993.5" cy="215" rx="97.5" ry="98" fill="#F1D299" fill-opacity="0.3"/>
<path d="M1519.15 141.745C1519.15 246.538 1434.2 331.49 1329.41 331.49C1224.62 331.49 1139.66 246.538 1139.66 141.745C1139.66 36.9517 1224.62 -48 1329.41 -48C1434.2 -48 1519.15 36.9517 1519.15 141.745ZM1208.73 141.745C1208.73 208.393 1262.76 262.422 1329.41 262.422C1396.06 262.422 1450.09 208.393 1450.09 141.745C1450.09 75.0969 1396.06 21.068 1329.41 21.068C1262.76 21.068 1208.73 75.0969 1208.73 141.745Z" fill="#F1D299" fill-opacity="0.3"/>
</g>
<defs>
<clipPath id="clip0_35_23">
<rect width="1440" height="1024" fill="white"/>
</clipPath>
</defs>
</svg>
