<svg width="404" height="462" viewBox="0 0 404 462" fill="none" xmlns="http://www.w3.org/2000/svg">
<rect width="404" height="462" rx="20" fill="white"/>
<rect x="1" y="1" width="402" height="460" rx="19" stroke="#919EAB" stroke-opacity="0.5" stroke-width="2"/>
<circle cx="128.944" cy="367.613" r="32.2809" fill="#F1D299" fill-opacity="0.3"/>
<ellipse cx="72.8298" cy="220.69" rx="58.8298" ry="59.1315" fill="#F1D299" fill-opacity="0.3"/>
<path d="M389.999 176.489C389.999 239.719 338.741 290.977 275.51 290.977C212.28 290.977 161.022 239.719 161.022 176.489C161.022 113.258 212.28 62 275.51 62C338.741 62 389.999 113.258 389.999 176.489ZM202.696 176.489C202.696 216.703 235.296 249.303 275.51 249.303C315.725 249.303 348.325 216.703 348.325 176.489C348.325 136.274 315.725 103.674 275.51 103.674C235.296 103.674 202.696 136.274 202.696 176.489Z" fill="#F1D299" fill-opacity="0.3"/>
</svg>
