<svg width="1094" height="360" viewBox="0 0 1094 360" fill="none" xmlns="http://www.w3.org/2000/svg">
<g filter="url(#filter0_d_906_1556)">
<rect width="1086" height="348" rx="20" fill="#603A15"/>
</g>
<circle cx="808.003" cy="314.741" r="33.1395" fill="#F1D299" fill-opacity="0.1"/>
<ellipse cx="750.394" cy="163.91" rx="60.3944" ry="60.7041" fill="#F1D299" fill-opacity="0.1"/>
<path d="M1076 118.534C1076 183.446 1023.38 236.067 958.467 236.067C893.555 236.067 840.934 183.446 840.934 118.534C840.934 53.6216 893.555 1 958.467 1C1023.38 1 1076 53.6216 1076 118.534ZM883.716 118.534C883.716 159.817 917.183 193.285 958.467 193.285C999.751 193.285 1033.22 159.817 1033.22 118.534C1033.22 77.2499 999.751 43.7828 958.467 43.7828C917.183 43.7828 883.716 77.2499 883.716 118.534Z" fill="#F1D299" fill-opacity="0.1"/>
<defs>
<filter id="filter0_d_906_1556" x="0" y="0" width="1094" height="360" filterUnits="userSpaceOnUse" color-interpolation-filters="sRGB">
<feFlood flood-opacity="0" result="BackgroundImageFix"/>
<feColorMatrix in="SourceAlpha" type="matrix" values="0 0 0 0 0 0 0 0 0 0 0 0 0 0 0 0 0 0 127 0" result="hardAlpha"/>
<feOffset dx="4" dy="8"/>
<feGaussianBlur stdDeviation="2"/>
<feComposite in2="hardAlpha" operator="out"/>
<feColorMatrix type="matrix" values="0 0 0 0 0 0 0 0 0 0 0 0 0 0 0 0 0 0 0.25 0"/>
<feBlend mode="normal" in2="BackgroundImageFix" result="effect1_dropShadow_906_1556"/>
<feBlend mode="normal" in="SourceGraphic" in2="effect1_dropShadow_906_1556" result="shape"/>
</filter>
</defs>
</svg>
